<svg width="504" height="507" viewBox="0 0 504 507" fill="none" xmlns="http://www.w3.org/2000/svg">
<path d="M214.996 186.573L109.463 217.115L75.293 306.622L244.63 273.056L214.996 186.573Z" fill="#6D47A1"/>
<path d="M326.88 0H193.527L340.185 429.996L503.173 504.685L326.88 0Z" fill="#6E49A2"/>
<path d="M112.188 209.555L170.246 56.8491L212.883 180.223L112.188 209.555Z" fill="#6D47A1"/>
<path d="M42.0312 395.221L73.4796 312.367L247.353 280.616L272.148 352.887L42.0312 395.221Z" fill="#6D47A1"/>
<path d="M0 505.895L144.844 506.5L186.573 390.988H285.454L274.266 358.632L39.6128 401.269L0 505.895Z" fill="#6D47A1"/>
<circle cx="17.2345" cy="401.571" r="16.9337" fill="white"/>
<circle cx="51.1017" cy="313.879" r="16.9337" fill="white"/>
<circle cx="85.5743" cy="221.953" r="16.9337" fill="white"/>
<path d="M212.883 180.223L251.286 169.035L253.403 175.385L215 186.573L212.883 180.223Z" fill="white"/>
<path d="M99.7891 213.184L112.187 209.555L109.465 217.115L101.906 219.231L99.7891 213.184Z" fill="white"/>
<path d="M244.629 273.056L284.242 265.497L286.963 273.056L247.35 280.616L244.629 273.056Z" fill="white"/>
<path d="M64.1055 308.738L75.2938 306.621L73.4795 312.367L65.315 313.879L64.1055 308.738Z" fill="white"/>
<path d="M29.6328 397.64L42.0307 395.221L39.6116 401.571L31.4471 403.083L29.6328 397.64Z" fill="white"/>
<path d="M272.148 352.887L311.761 345.327L313.576 351.375L274.265 358.632L272.148 352.887Z" fill="white"/>
</svg>
