<svg width="832" height="838" viewBox="0 0 832 838" fill="none" xmlns="http://www.w3.org/2000/svg">
<path d="M355.5 308.5L181 359L124.5 507L404.5 451.5L355.5 308.5Z" fill="#383838"/>
<path d="M540.5 0H320L562.5 711L832 834.5L540.5 0Z" fill="#383838"/>
<path d="M185.5 346.5L281.5 94L352 298L185.5 346.5Z" fill="#383838"/>
<path d="M69.5 653.5L121.5 516.5L409 464L450 583.5L69.5 653.5Z" fill="#383838"/>
<path d="M0 836.5L239.5 837.5L308.5 646.5H472L453.5 593L65.5 663.5L0 836.5Z" fill="#383838"/>
<circle cx="28.5" cy="664" r="28" fill="#383838"/>
<circle cx="84.5" cy="519" r="28" fill="#383838"/>
<circle cx="141.5" cy="367" r="28" fill="#383838"/>
<path d="M352 298L415.5 279.5L419 290L355.5 308.5L352 298Z" fill="#383838"/>
<path d="M165 352.5L185.5 346.5L181 359L168.5 362.5L165 352.5Z" fill="#383838"/>
<path d="M404.5 451.5L470 439L474.5 451.5L409 464L404.5 451.5Z" fill="#383838"/>
<path d="M106 510.5L124.5 507L121.5 516.5L108 519L106 510.5Z" fill="#383838"/>
<path d="M49 657.5L69.5 653.5L65.5 664L52 666.5L49 657.5Z" fill="#383838"/>
<path d="M450 583.5L515.5 571L518.5 581L453.5 593L450 583.5Z" fill="#383838"/>
</svg>
