<svg width="833" height="838" viewBox="0 0 833 838" fill="none" xmlns="http://www.w3.org/2000/svg">
<path d="M356 308.5L181.5 359L125 507L405 451.5L356 308.5Z" fill="white"/>
<path d="M541 0H320.5L563 711L832.5 834.5L541 0Z" fill="white"/>
<path d="M186 346.5L282 94L352.5 298L186 346.5Z" fill="white"/>
<path d="M70 653.5L122 516.5L409.5 464L450.5 583.5L70 653.5Z" fill="white"/>
<path d="M0.5 836.5L240 837.5L309 646.5H472.5L454 593L66 663.5L0.5 836.5Z" fill="white"/>
<circle cx="29" cy="664" r="28" fill="white"/>
<circle cx="85" cy="519" r="28" fill="white"/>
<circle cx="142" cy="367" r="28" fill="white"/>
<path d="M352.5 298L416 279.5L419.5 290L356 308.5L352.5 298Z" fill="white"/>
<path d="M165.5 352.5L186 346.5L181.5 359L169 362.5L165.5 352.5Z" fill="white"/>
<path d="M405 451.5L470.5 439L475 451.5L409.5 464L405 451.5Z" fill="white"/>
<path d="M106.5 510.5L125 507L122 516.5L108.5 519L106.5 510.5Z" fill="white"/>
<path d="M49.5 657.5L70 653.5L66 664L52.5 666.5L49.5 657.5Z" fill="white"/>
<path d="M450.5 583.5L516 571L519 581L454 593L450.5 583.5Z" fill="white"/>
</svg>
